<?xml version="1.0" encoding="utf-8"?>
<!-- Generator: Adobe Illustrator 16.0.0, SVG Export Plug-In . SVG Version: 6.00 Build 0)  -->
<!DOCTYPE svg PUBLIC "-//W3C//DTD SVG 1.1//EN" "http://www.w3.org/Graphics/SVG/1.1/DTD/svg11.dtd">
<svg version="1.1" id="Layer_1" xmlns:sketch="http://www.bohemiancoding.com/sketch/ns"
	 xmlns="http://www.w3.org/2000/svg" xmlns:xlink="http://www.w3.org/1999/xlink" x="0px" y="0px" width="90px" height="147px"
	 viewBox="0 0 90 147" enable-background="new 0 0 90 147" xml:space="preserve">
<title>Untitled 4</title>
<description>Created with Sketch (http://www.bohemiancoding.com/sketch)</description>
<g id="Page-1" sketch:type="MSPage">
	
	<!-- <linearGradient id="path2432_2_" gradientUnits="userSpaceOnUse" x1="-430.6055" y1="347.9736" x2="-429.6055" y2="347.9736" gradientTransform="matrix(90 0 0 33.75 38754.5 -11648.25)">
		<stop  offset="0" style="stop-color:#FFFFFF;stop-opacity:1"/>
		<stop  offset="1" style="stop-color:#FFFFFF;stop-opacity:0"/>
	</linearGradient> -->
	<!-- <path id="path2432_1_" sketch:type="MSShapeGroup" fill="url(#path2432_2_)" d="M0,90.25C0,88.355,40.914,85.179,67.57,79
		C80.447,81.984,90,85.672,90,90.25v11.25c0,4.581-9.553,8.266-22.43,11.25C40.914,106.572,0,103.396,0,101.5V90.25z"/>
	 -->
	<!-- <linearGradient id="path2432_3_" gradientUnits="userSpaceOnUse" x1="-430.6055" y1="346.626" x2="-429.6055" y2="346.626" gradientTransform="matrix(90 0 0 33.75 38754.5 -11648.25)">
		<stop  offset="0" style="stop-color:#FFFFFF;stop-opacity:0.97"/>
		<stop  offset="1" style="stop-color:#FFFFFF;stop-opacity:0.02"/>
	</linearGradient> -->
	<!-- <path id="path2432" sketch:type="MSShapeGroup" fill="url(#path2432_3_)" d="M0,44.75c0-1.895,40.914-5.071,67.57-11.25
		C80.447,36.484,90,40.172,90,44.75V56c0,4.581-9.553,8.266-22.43,11.25C40.914,61.072,0,57.896,0,56V44.75z"/>
	<path id="path2572" sketch:type="MSShapeGroup" fill="#FFFFFF" d="M0,67.5c0-2.812,90-8.438,90-22.5v33.75l0,0
		c0,14.062-90,19.688-90,22.5V67.5"/>
	<path id="path2592" sketch:type="MSShapeGroup" fill="#FFFFFF" d="M0,112.5c0-2.812,90-8.438,90-22.5v33.75l0,0
		c0,14.062-90,19.688-90,22.5V112.5"/>
	<path id="path2712" sketch:type="MSShapeGroup" fill="#FFFFFF" d="M0,22.5C0,19.688,90,14.062,90,0v33.75l0,0
		c0,14.062-90,19.688-90,22.5V22.5"/> -->
</g>
</svg>
